<svg width="16" height="15" viewBox="0 0 16 15" fill="none" xmlns="http://www.w3.org/2000/svg">
    <g opacity="0.5">
        <path fill-rule="evenodd" clip-rule="evenodd"
              d="M7.99325 0.75C4.26725 0.75 1.25 3.774 1.25 7.5C1.25 11.226 4.26725 14.25 7.99325 14.25C11.726 14.25 14.75 11.226 14.75 7.5C14.75 3.774 11.726 0.75 7.99325 0.75ZM8.00005 12.9C5.01655 12.9 2.60005 10.4835 2.60005 7.5C2.60005 4.5165 5.01655 2.1 8.00005 2.1C10.9835 2.1 13.4 4.5165 13.4 7.5C13.4 10.4835 10.9835 12.9 8.00005 12.9ZM8.3376 4.125H7.3251V8.175L10.8688 10.3012L11.3751 9.471L8.3376 7.66875V4.125Z"
              fill="#86A1AE"/>
    </g>
</svg>
