<svg width="19" height="18" viewBox="0 0 19 18" fill="none" xmlns="http://www.w3.org/2000/svg">
    <g opacity="0.5">
        <path fill-rule="evenodd" clip-rule="evenodd"
              d="M15.1002 6.30002H13.7002V4.95002C13.7002 2.71645 11.8165 0.900024 9.5002 0.900024C7.1839 0.900024 5.3002 2.71645 5.3002 4.95002V6.30002H3.9002C3.5138 6.30002 3.2002 6.60242 3.2002 6.97502V16.425C3.2002 16.7976 3.5138 17.1 3.9002 17.1H15.1002C15.4866 17.1 15.8002 16.7976 15.8002 16.425V6.97502C15.8002 6.60242 15.4866 6.30002 15.1002 6.30002ZM10.2002 12.9258V14.4H8.80016V12.9258C7.98746 12.6464 7.40016 11.9039 7.40016 11.025C7.40016 9.90858 8.34236 9.00002 9.50016 9.00002C10.658 9.00002 11.6002 9.90858 11.6002 11.025C11.6002 11.9039 11.0136 12.6464 10.2002 12.9258ZM6.70022 6.30002H12.3002V4.95002C12.3002 3.46097 11.0444 2.25002 9.50022 2.25002C7.95602 2.25002 6.70022 3.46097 6.70022 4.95002V6.30002Z"
              fill="#86A1AE"/>
    </g>
</svg>
