<svg width="16" height="15" viewBox="0 0 16 15" fill="none" xmlns="http://www.w3.org/2000/svg">
    <g opacity="0.5">
        <path fill-rule="evenodd" clip-rule="evenodd"
              d="M8.69316 8.99253H7.33866V8.81403C7.33866 8.16303 7.58016 7.63803 8.37816 6.93453C8.87166 6.49353 8.98716 6.14703 8.98716 5.75853C8.98716 5.31753 8.72466 4.90803 8.11566 4.90803C7.46466 4.90803 7.20216 5.33853 7.12866 5.91603H5.84766C5.90016 5.11803 6.41466 3.87903 8.14716 3.87903C9.80616 3.88953 10.3102 4.98153 10.3102 5.79003C10.3102 6.48303 10.0897 6.94503 9.32316 7.64853C8.85066 8.08953 8.69316 8.43603 8.69316 8.88753V8.99253ZM8.69309 11.25H7.33859V9.61203H8.69309V11.25Z"
              fill="#86A1AE"/>
        <path fill-rule="evenodd" clip-rule="evenodd"
              d="M8 0C3.86 0 0.5 3.36 0.5 7.5C0.5 11.64 3.86 15 8 15C12.14 15 15.5 11.64 15.5 7.5C15.5 3.36 12.14 0 8 0ZM8 13.5C4.6925 13.5 2 10.8075 2 7.5C2 4.1925 4.6925 1.5 8 1.5C11.3075 1.5 14 4.1925 14 7.5C14 10.8075 11.3075 13.5 8 13.5Z"
              fill="#86A1AE"/>
    </g>
</svg>
