<svg width="17" height="16" viewBox="0 0 17 16" fill="none" xmlns="http://www.w3.org/2000/svg">
    <path fill-rule="evenodd" clip-rule="evenodd"
          d="M12.2596 10.64C12.9796 9.67998 13.3796 8.55998 13.3796 7.27998C13.3796 4.15998 10.8996 1.59998 7.77961 1.59998C4.65961 1.59998 2.09961 4.15998 2.09961 7.27998C2.09961 10.4 4.65961 12.96 7.77961 12.96C9.05961 12.96 10.2596 12.56 11.1396 11.84L13.5396 14.24C13.6996 14.4 13.9396 14.48 14.0996 14.48C14.2596 14.48 14.4996 14.4 14.6596 14.24C14.9796 13.92 14.9796 13.44 14.6596 13.12L12.2596 10.64ZM7.77961 11.28C5.53961 11.28 3.69961 9.51998 3.69961 7.27998C3.69961 5.03998 5.53961 3.19998 7.77961 3.19998C10.0196 3.19998 11.8596 5.03998 11.8596 7.27998C11.8596 9.51998 10.0196 11.28 7.77961 11.28Z"
          fill="#86A1AE"/>
</svg>
