<svg width="21" height="20" viewBox="0 0 21 20" fill="none" xmlns="http://www.w3.org/2000/svg">
    <g opacity="0.5">
        <path fill-rule="evenodd" clip-rule="evenodd"
              d="M18.5 11.4545V8.54545H16.1276C15.9902 8.01309 15.7807 7.51127 15.508 7.04873L17.1851 5.37164L15.1284 3.31491L13.4513 4.992C12.9887 4.71927 12.4869 4.50982 11.9545 4.37236V2H9.04545V4.37236C8.51309 4.50982 8.01127 4.71927 7.54873 4.992L5.87164 3.31491L3.81491 5.37164L5.492 7.04873C5.21927 7.51127 5.00982 8.01309 4.87236 8.54545H2.5V11.4545H4.87236C5.00982 11.9869 5.21927 12.4887 5.492 12.9513L3.81491 14.6284L5.87164 16.6851L7.54873 15.008C8.01055 15.2807 8.51309 15.4902 9.04545 15.6276V18H11.9545V15.6276C12.4869 15.4902 12.9887 15.2807 13.4513 15.008L15.1284 16.6851L17.1851 14.6284L15.508 12.9513C15.7807 12.4895 15.9902 11.9869 16.1276 11.4545H18.5Z"
              stroke="#86A1AE" stroke-width="1.44" stroke-linecap="square"/>
        <circle cx="10.5002" cy="9.99993" r="2.18182" stroke="#86A1AE" stroke-width="1.44" stroke-linecap="square"/>
    </g>
</svg>
